<svg id="visual" viewBox="0 0 1920 1080" width="1920" height="1080" xmlns="http://www.w3.org/2000/svg" xmlns:xlink="http://www.w3.org/1999/xlink" version="1.1"><rect x="0" y="0" width="1920" height="1080" fill="#ffffff"></rect><defs><linearGradient id="grad1_0" x1="43.8%" y1="100%" x2="100%" y2="0%"><stop offset="14.444444444444446%" stop-color="#4facf7" stop-opacity="1"></stop><stop offset="85.55555555555554%" stop-color="#4facf7" stop-opacity="1"></stop></linearGradient></defs><defs><linearGradient id="grad1_1" x1="43.8%" y1="100%" x2="100%" y2="0%"><stop offset="14.444444444444446%" stop-color="#4facf7" stop-opacity="1"></stop><stop offset="85.55555555555554%" stop-color="#b4d4fc" stop-opacity="1"></stop></linearGradient></defs><defs><linearGradient id="grad1_2" x1="43.8%" y1="100%" x2="100%" y2="0%"><stop offset="14.444444444444446%" stop-color="#ffffff" stop-opacity="1"></stop><stop offset="85.55555555555554%" stop-color="#b4d4fc" stop-opacity="1"></stop></linearGradient></defs><defs><linearGradient id="grad2_0" x1="0%" y1="100%" x2="56.3%" y2="0%"><stop offset="14.444444444444446%" stop-color="#4facf7" stop-opacity="1"></stop><stop offset="85.55555555555554%" stop-color="#4facf7" stop-opacity="1"></stop></linearGradient></defs><defs><linearGradient id="grad2_1" x1="0%" y1="100%" x2="56.3%" y2="0%"><stop offset="14.444444444444446%" stop-color="#b4d4fc" stop-opacity="1"></stop><stop offset="85.55555555555554%" stop-color="#4facf7" stop-opacity="1"></stop></linearGradient></defs><defs><linearGradient id="grad2_2" x1="0%" y1="100%" x2="56.3%" y2="0%"><stop offset="14.444444444444446%" stop-color="#b4d4fc" stop-opacity="1"></stop><stop offset="85.55555555555554%" stop-color="#ffffff" stop-opacity="1"></stop></linearGradient></defs><g transform="translate(1920, 1080)"><path d="M-594 0C-581.8 -61.1 -569.6 -122.2 -548.8 -178.3C-527.9 -234.4 -498.4 -285.6 -466 -338.6C-433.6 -391.5 -398.2 -446.3 -349.1 -480.6C-300.1 -514.8 -237.2 -528.5 -176.8 -544C-116.3 -559.5 -58.1 -576.7 0 -594L0 0Z" fill="#dbe9fd"></path><path d="M-396 0C-387.9 -40.7 -379.7 -81.5 -365.8 -118.9C-351.9 -156.3 -332.3 -190.4 -310.7 -225.7C-289 -261 -265.5 -297.5 -232.8 -320.4C-200 -343.2 -158.2 -352.3 -117.8 -362.7C-77.5 -373 -38.8 -384.5 0 -396L0 0Z" fill="#88c0f9"></path><path d="M-198 0C-193.9 -20.4 -189.9 -40.7 -182.9 -59.4C-176 -78.1 -166.1 -95.2 -155.3 -112.9C-144.5 -130.5 -132.7 -148.8 -116.4 -160.2C-100 -171.6 -79.1 -176.2 -58.9 -181.3C-38.8 -186.5 -19.4 -192.2 0 -198L0 0Z" fill="#4facf7"></path></g><g transform="translate(0, 0)"><path d="M594 0C594.2 66.1 594.5 132.2 564.9 183.6C535.4 234.9 476 271.4 434.4 315.6C392.9 359.9 369.3 411.9 330.3 454.7C291.4 497.4 237.1 530.9 179.5 552.6C121.9 574.2 61 584.1 0 594L0 0Z" fill="#dbe9fd"></path><path d="M396 0C396.2 44.1 396.3 88.2 376.6 122.4C356.9 156.6 317.3 180.9 289.6 210.4C261.9 239.9 246.2 274.6 220.2 303.1C194.3 331.6 158.1 353.9 119.7 368.4C81.3 382.8 40.6 389.4 0 396L0 0Z" fill="#88c0f9"></path><path d="M198 0C198.1 22 198.2 44.1 188.3 61.2C178.5 78.3 158.7 90.5 144.8 105.2C131 120 123.1 137.3 110.1 151.6C97.1 165.8 79 177 59.8 184.2C40.6 191.4 20.3 194.7 0 198L0 0Z" fill="#4facf7"></path></g></svg>